<svg width="1440" height="589" viewBox="0 0 1440 589" fill="none" xmlns="http://www.w3.org/2000/svg">
<path opacity="0.3" fill-rule="evenodd" clip-rule="evenodd" d="M1452.18 50.1219C1419.98 33.5179 1362.31 12.7835 1293.93 4.50017C1225.54 -3.78347 1146.39 0.381196 1071.25 33.6134C1047.75 44.0095 1031.57 56.4711 1020.76 70.3682C1009.95 84.2678 1004.53 99.5758 1002.48 115.628C998.961 143.239 1005.44 173.102 1011.67 201.826C1012.67 206.458 1013.67 211.061 1014.62 215.62C1018.04 232.056 1020.82 247.926 1020.99 262.614C1021.16 277.296 1018.71 290.763 1011.7 302.41C997.682 325.689 965.29 341.922 898.268 345.759C797.403 351.533 727.522 323.598 668.317 299.929L668.316 299.929C648.876 292.157 630.586 284.846 612.728 279.339C576.611 268.202 542.28 264.471 503.878 279.381C465.501 294.282 423.121 327.775 370.829 390.932C318.608 454.003 274.241 473.415 234.143 468.749C193.986 464.076 157.93 435.246 122.362 401.354C113.771 393.168 105.208 384.686 96.6255 376.184L96.625 376.184C69.7257 349.539 42.63 322.699 13.8321 304.141C-5.17505 291.893 -24.956 283.228 -45.9528 280.597C-66.9568 277.966 -89.1454 281.378 -112.955 293.234L-112.509 294.129C-88.8642 282.355 -66.8729 278.984 -46.0771 281.589C-25.2742 284.196 -5.63553 292.786 13.2904 304.982C41.9918 323.477 68.9799 350.21 95.8616 376.837C104.458 385.352 113.044 393.857 121.672 402.078C157.228 435.958 193.502 465.026 234.027 469.742C274.611 474.465 319.28 454.759 371.599 391.569C423.847 328.465 466.096 295.123 504.24 280.313C542.359 265.513 576.442 269.196 612.433 280.295C630.191 285.77 648.418 293.057 667.817 300.813C727.05 324.494 797.215 352.546 898.325 346.757C965.41 342.917 998.266 326.658 1012.55 302.926C1019.69 291.067 1022.16 277.398 1021.99 262.602C1021.82 247.811 1019.02 231.859 1015.6 215.416C1014.65 210.874 1013.66 206.294 1012.66 201.691L1012.64 201.589C1006.41 172.85 999.977 143.179 1003.47 115.755C1005.5 99.8502 1010.87 84.7184 1021.55 70.9822C1032.24 57.2434 1048.26 44.8731 1071.66 34.528C1146.59 1.38842 1225.54 -2.77584 1293.8 5.49291C1362.07 13.762 1419.62 34.4613 1451.72 51.0107L1452.18 50.1219ZM1314.87 44.0154C1383.25 52.2988 1440.92 73.0332 1473.12 89.6372L1472.66 90.526C1440.56 73.9765 1383.02 53.2772 1314.75 45.0082C1246.48 36.7394 1167.53 40.9037 1092.6 74.0432C1069.21 84.3884 1053.18 96.7587 1042.49 110.497C1031.81 124.234 1026.44 139.365 1024.41 155.27C1020.92 182.695 1027.35 212.366 1033.58 241.104L1033.6 241.206L1033.63 241.331C1034.62 245.893 1035.6 250.43 1036.54 254.932C1039.96 271.374 1042.76 287.326 1042.93 302.117C1043.1 316.913 1040.63 330.582 1033.49 342.441C1019.21 366.173 986.351 382.432 919.267 386.273C818.156 392.061 747.991 364.009 688.759 340.328C669.359 332.573 651.132 325.286 633.375 319.81C597.383 308.711 563.3 305.028 525.181 319.829C487.037 334.639 444.789 367.98 392.541 431.085C340.222 494.274 295.553 513.98 254.968 509.258C214.443 504.542 178.17 475.474 142.614 441.593C133.986 433.372 125.4 424.868 116.803 416.352C89.9214 389.725 62.9332 362.992 34.2319 344.497C15.3059 332.301 -4.33269 323.711 -25.1357 321.105C-45.9315 318.5 -67.9227 321.87 -91.5674 333.644L-92.0131 332.749C-68.204 320.893 -46.0153 317.481 -25.0113 320.112C-4.01455 322.743 15.7664 331.408 34.7736 343.656C63.5714 362.214 90.6671 389.054 117.567 415.699L117.567 415.7C126.149 424.201 134.712 432.683 143.303 440.869C178.872 474.761 214.927 503.591 255.084 508.264C295.182 512.931 339.549 493.518 391.77 430.447C444.062 367.29 486.442 333.797 524.819 318.896C563.222 303.986 597.552 307.717 633.67 318.854C651.527 324.361 669.817 331.673 689.257 339.444L689.259 339.445C748.464 363.113 818.344 391.049 919.21 385.274C986.231 381.437 1018.62 365.204 1032.64 341.925C1039.65 330.278 1042.1 316.812 1041.93 302.129C1041.76 287.441 1038.98 271.571 1035.56 255.135C1034.61 250.576 1033.61 245.974 1032.61 241.341C1026.38 212.618 1019.9 182.754 1023.42 155.144C1025.47 139.091 1030.89 123.783 1041.7 109.883C1052.51 95.9864 1068.69 83.5248 1092.19 73.1287C1167.33 39.8964 1246.48 35.7318 1314.87 44.0154ZM1494.06 129.152C1461.86 112.548 1404.19 91.814 1335.81 83.5307C1267.42 75.247 1188.27 79.4117 1113.13 112.644C1089.63 123.04 1073.45 135.502 1062.64 149.399C1051.83 163.298 1046.41 178.606 1044.36 194.659C1040.84 222.269 1047.32 252.133 1053.55 280.856C1054.56 285.489 1055.55 290.092 1056.5 294.651C1059.92 311.086 1062.71 326.957 1062.87 341.644C1063.04 356.327 1060.59 369.793 1053.58 381.441C1039.57 404.72 1007.17 420.953 940.151 424.789C839.285 430.564 769.405 402.628 710.2 378.96L710.199 378.96C690.758 371.188 672.469 363.876 654.611 358.37C618.494 347.232 584.163 343.501 545.761 358.412C507.384 373.312 465.004 406.806 412.712 469.962C360.491 533.033 316.124 552.446 276.026 547.779C235.869 543.106 199.813 514.277 164.245 480.385C155.653 472.198 147.091 463.716 138.508 455.215C111.609 428.569 84.5129 401.729 55.7151 383.172C36.7079 370.923 16.9269 362.258 -4.06987 359.628C-25.0738 356.996 -47.2625 360.408 -71.0717 372.264L-70.6259 373.159C-46.9812 361.385 -24.99 358.015 -4.19418 360.62C16.6088 363.226 36.2474 371.816 55.1734 384.012C83.8747 402.508 110.863 429.24 137.745 455.867C146.341 464.383 154.927 472.887 163.555 481.109C199.111 514.989 235.385 544.057 275.91 548.773C316.494 553.496 361.163 533.789 413.482 470.6C465.73 407.496 507.979 374.154 546.123 359.344C584.242 344.544 618.324 348.226 654.316 359.325C672.074 364.801 690.301 372.088 709.7 379.844C768.933 403.525 839.098 431.576 940.208 425.788C1007.29 421.947 1040.15 405.689 1054.44 381.956C1061.57 370.098 1064.04 356.429 1063.87 341.633C1063.7 326.841 1060.9 310.889 1057.48 294.447C1056.54 289.904 1055.54 285.324 1054.55 280.72L1054.52 280.619C1048.29 251.881 1041.86 222.21 1045.36 194.785C1047.38 178.881 1052.75 163.749 1063.43 150.013C1074.12 136.274 1090.15 123.904 1113.54 113.558C1188.47 80.4189 1267.42 76.2547 1335.69 84.5234C1403.96 92.7925 1461.51 113.492 1493.6 130.041L1494.06 129.152ZM1515 168.668C1482.8 152.064 1425.14 131.329 1356.75 123.046C1288.36 114.762 1209.22 118.927 1134.08 152.159C1110.57 162.555 1094.4 175.017 1083.59 188.914C1072.77 202.814 1067.35 218.122 1065.3 234.174C1061.79 261.784 1068.26 291.648 1074.49 320.372C1075.5 325.004 1076.49 329.607 1077.44 334.166C1080.86 350.602 1083.65 366.472 1083.81 381.159C1083.98 395.842 1081.53 409.309 1074.52 420.956C1060.51 444.235 1028.11 460.468 961.093 464.305C860.227 470.079 790.347 442.143 731.142 418.475L731.14 418.475C711.7 410.703 693.41 403.392 675.553 397.885C639.435 386.747 605.105 383.016 566.702 397.927C528.325 412.827 485.945 446.321 433.653 509.477C381.432 572.549 337.065 591.961 296.967 587.295C256.81 582.622 220.755 553.792 185.186 519.9C176.598 511.717 168.039 503.238 159.46 494.74L159.451 494.731L159.449 494.73C132.55 468.084 105.454 441.245 76.6565 422.687C57.6494 410.438 37.8684 401.773 16.8716 399.143C-4.13235 396.512 -26.321 399.924 -50.1302 411.78L-49.6844 412.675C-26.0398 400.901 -4.04853 397.53 16.7473 400.135C37.5503 402.741 57.1889 411.331 76.1149 423.527C104.816 442.023 131.804 468.755 158.686 495.383C167.283 503.898 175.869 512.403 184.497 520.624C220.053 554.504 256.326 583.572 296.851 588.288C337.436 593.011 382.105 573.304 434.424 510.115C486.672 447.011 528.92 413.669 567.064 398.859C605.183 384.059 639.266 387.741 675.258 398.84C693.015 404.316 711.242 411.603 730.642 419.359C789.874 443.04 860.039 471.091 961.15 465.303C1028.23 461.463 1061.09 445.204 1075.38 421.472C1082.52 409.613 1084.98 395.944 1084.81 381.148C1084.65 366.356 1081.84 350.405 1078.42 333.962C1077.48 329.419 1076.48 324.839 1075.49 320.235L1075.46 320.134C1069.23 291.396 1062.8 261.725 1066.3 234.3C1068.32 218.396 1073.69 203.264 1084.37 189.528C1095.06 175.789 1111.09 163.419 1134.48 153.074C1209.41 119.934 1288.36 115.77 1356.63 124.039C1424.9 132.308 1482.45 153.007 1514.55 169.556L1515 168.668Z" fill="url(#paint0_linear_3_107)"/>
<defs>
<linearGradient id="paint0_linear_3_107" x1="112.12" y1="257.533" x2="1193.35" y2="73.9983" gradientUnits="userSpaceOnUse">
<stop stop-color="#150544"/>
<stop offset="0.505208" stop-color="white"/>
<stop offset="0.979167" stop-color="#6552FF"/>
</linearGradient>
</defs>
</svg>
