<svg width="1440" height="552" fill="none" xmlns="http://www.w3.org/2000/svg"><path opacity=".5" fill-rule="evenodd" clip-rule="evenodd" d="M1476.53 370.131c-23.49-27.583-68.98-68.649-129.1-102.264-60.13-33.616-134.94-59.797-217.07-57.565-25.69.699-45.39 6.09-60.66 14.846-15.28 8.757-26.11 20.862-34.09 34.937-13.73 24.21-19.07 54.297-24.21 83.236-.83 4.668-1.65 9.305-2.5 13.883-3.08 16.504-6.52 32.243-11.943 45.895-5.418 13.648-12.793 25.179-23.7 33.294-21.8 16.219-57.929 18.946-121.394-2.938-95.512-32.934-149.564-85.298-195.359-129.663l-.001-.001c-15.037-14.568-29.184-28.273-43.616-40.145-29.189-24.01-59.536-40.489-100.724-41.267-41.161-.778-93.081 14.128-165.428 52.717-72.249 38.536-120.665 39.66-155.993 20.126-35.379-19.562-57.797-59.918-77.844-104.772-4.842-10.835-9.545-21.931-14.26-33.053v-.001c-14.776-34.86-29.66-69.975-49.261-98.072-12.937-18.546-27.95-34.07-46.379-44.47C-15.436 4.447-37.26-.817-63.787 1.118l.073.997c26.344-1.92 47.97 3.306 66.22 13.608 18.26 10.307 33.17 25.707 46.051 44.173 19.537 28.003 34.361 62.978 49.128 97.814 4.722 11.141 9.439 22.268 14.301 33.148 20.04 44.839 42.569 85.498 78.274 105.239 35.756 19.771 84.562 18.49 156.946-20.119 72.287-38.557 124.028-53.372 164.939-52.599 40.884.772 71.02 17.113 100.108 41.04 14.351 11.805 28.449 25.463 43.454 40.001 45.816 44.387 100.087 96.966 195.831 129.98 63.524 21.905 100.093 19.331 122.317 2.795 11.105-8.263 18.573-19.974 24.032-33.727 5.454-13.748 8.924-29.57 11.994-46.081.85-4.562 1.67-9.175 2.49-13.813l.02-.103c5.14-28.953 10.45-58.846 24.09-82.893 7.91-13.945 18.62-25.909 33.72-34.563 15.1-8.656 34.62-14.018 60.19-14.713 81.9-2.226 156.53 23.882 216.55 57.438 60.02 33.557 105.41 74.547 128.83 102.04l.76-.649Zm-124.72-57.757c60.12 33.615 105.61 74.681 129.1 102.264l-.76.648c-23.42-27.492-68.81-68.482-128.83-102.04-60.02-33.556-134.65-59.664-216.55-57.438-25.57.695-45.09 6.058-60.19 14.714-15.1 8.654-25.81 20.617-33.72 34.563-13.64 24.047-18.95 53.939-24.09 82.892l-.02.103-.02.127c-.82 4.595-1.63 9.166-2.47 13.686-3.07 16.512-6.54 32.333-11.99 46.082-5.463 13.753-12.931 25.464-24.036 33.726-22.225 16.536-58.793 19.11-122.317-2.794-95.744-33.014-150.015-85.594-195.831-129.981-15.005-14.537-29.103-28.196-43.454-40.001-29.088-23.927-59.224-40.268-100.108-41.04-40.911-.773-92.652 14.043-164.939 52.599-72.384 38.609-121.19 39.89-156.947 20.12-35.704-19.742-58.234-60.401-78.273-105.24-4.863-10.88-9.579-22.007-14.301-33.147-14.767-34.837-29.592-69.811-49.127-97.815-12.883-18.466-27.792-33.866-46.05-44.171C-11.365 49.929-32.99 44.7-59.334 46.623l-.073-.998c26.527-1.934 48.35 3.33 66.785 13.735 18.428 10.4 33.442 25.925 46.379 44.47 19.601 28.098 34.485 63.212 49.261 98.072v.001c4.714 11.122 9.418 22.219 14.26 33.053 20.046 44.855 42.464 85.21 77.844 104.773 35.328 19.533 83.743 18.41 155.993-20.127 72.346-38.589 124.267-53.494 165.428-52.717 41.188.778 71.535 17.258 100.724 41.268 14.432 11.871 28.579 25.577 43.616 40.144l.001.001c45.795 44.365 99.847 96.729 195.359 129.664 63.464 21.883 99.594 19.157 121.394 2.937 10.907-8.115 18.282-19.645 23.703-33.293 5.42-13.652 8.86-29.391 11.94-45.896.85-4.578 1.67-9.215 2.5-13.882 5.14-28.939 10.48-59.027 24.21-83.237 7.98-14.075 18.81-26.18 34.09-34.937 15.27-8.755 34.97-14.147 60.66-14.845 82.13-2.233 156.94 23.948 217.07 57.565Zm133.48 146.77c-23.49-27.583-68.98-68.649-129.1-102.264-60.13-33.616-134.94-59.797-217.07-57.565-25.69.698-45.39 6.09-60.66 14.845-15.28 8.757-26.11 20.862-34.09 34.938-13.73 24.209-19.07 54.297-24.21 83.236-.83 4.667-1.65 9.305-2.5 13.883-3.08 16.504-6.52 32.243-11.94 45.895-5.42 13.648-12.797 25.178-23.704 33.293-21.799 16.22-57.929 18.946-121.393-2.937-95.512-32.934-149.564-85.299-195.359-129.664h-.001c-15.037-14.568-29.184-28.273-43.616-40.145-29.19-24.01-59.537-40.49-100.725-41.267-41.16-.778-93.081 14.128-165.428 52.716-72.249 38.537-120.664 39.661-155.992 20.127-35.38-19.562-57.798-59.918-77.844-104.772-4.843-10.835-9.546-21.932-14.261-33.054-14.776-34.86-29.66-69.975-49.26-98.073-12.938-18.545-27.951-34.068-46.38-44.47C-6.675 93.461-28.5 88.198-55.027 90.132l.073.997c26.344-1.92 47.97 3.306 66.221 13.608 18.258 10.305 33.168 25.705 46.05 44.171 19.536 28.004 34.36 62.978 49.127 97.815 4.723 11.141 9.439 22.268 14.302 33.148 20.039 44.839 42.569 85.497 78.273 105.239 35.756 19.771 84.562 18.489 156.947-20.119 72.287-38.557 124.028-53.372 164.939-52.6 40.883.773 71.019 17.114 100.107 41.041 14.351 11.804 28.45 25.463 43.455 40 45.815 44.388 100.087 96.967 195.831 129.981 63.524 21.904 100.092 19.33 122.316 2.795 11.105-8.263 18.577-19.974 24.037-33.727 5.45-13.749 8.92-29.57 11.99-46.081.85-4.562 1.67-9.176 2.49-13.815l.02-.101c5.14-28.953 10.45-58.846 24.09-82.893 7.91-13.946 18.62-25.909 33.72-34.563 15.1-8.656 34.62-14.019 60.19-14.713 81.9-2.226 156.53 23.882 216.55 57.438 60.02 33.557 105.41 74.547 128.83 102.039l.76-.648Zm4.38 44.506c-23.49-27.583-68.98-68.649-129.1-102.264-60.13-33.616-134.94-59.797-217.07-57.565-25.69.699-45.39 6.09-60.66 14.846-15.28 8.757-26.11 20.862-34.09 34.937-13.73 24.21-19.07 54.298-24.21 83.236-.83 4.668-1.65 9.305-2.5 13.883-3.08 16.504-6.52 32.244-11.94 45.896-5.42 13.648-12.797 25.178-23.704 33.293-21.8 16.219-57.929 18.946-121.393-2.938-95.512-32.934-149.565-85.298-195.36-129.663v-.001c-15.038-14.568-29.184-28.273-43.617-40.144-29.189-24.011-59.536-40.49-100.724-41.268-41.161-.777-93.081 14.128-165.428 52.717-72.249 38.536-120.665 39.66-155.992 20.126-35.38-19.562-57.798-59.917-77.845-104.772-4.84-10.83-9.542-21.922-14.254-33.04l-.005-.012-.001-.002c-14.776-34.86-29.66-69.975-49.26-98.072-12.938-18.546-27.951-34.069-46.38-44.47-18.434-10.405-40.257-15.669-66.785-13.735l.073.997c26.344-1.92 47.97 3.307 66.221 13.608 18.258 10.306 33.168 25.706 46.05 44.172 19.536 28.003 34.36 62.978 49.127 97.814 4.722 11.141 9.439 22.268 14.301 33.148 20.04 44.839 42.569 85.498 78.274 105.24 35.756 19.77 84.562 18.489 156.947-20.12 72.287-38.557 124.027-53.372 164.938-52.599 40.884.772 71.02 17.113 100.108 41.04 14.351 11.805 28.449 25.463 43.454 40.001 45.816 44.387 100.088 96.967 195.832 129.981 63.523 21.904 100.092 19.33 122.316 2.794 11.105-8.262 18.577-19.974 24.037-33.726 5.45-13.749 8.92-29.571 11.99-46.082.85-4.562 1.67-9.176 2.49-13.814l.02-.102c5.14-28.953 10.45-58.845 24.09-82.893 7.91-13.945 18.62-25.908 33.72-34.563 15.1-8.655 34.62-14.018 60.19-14.713 81.9-2.226 156.53 23.882 216.55 57.438 60.02 33.557 105.41 74.547 128.83 102.04l.76-.649Z" fill="url(#Union__a)"/><defs><linearGradient id="Union__a" x1="158" y1="53.5" x2="1228" y2="294" gradientUnits="userSpaceOnUse"><stop stop-color="#E7F6FF"/><stop offset=".505" stop-color="#150544"/><stop offset=".979" stop-color="#6552FF"/></linearGradient></defs></svg>